<?xml version="1.0" standalone="no"?>
<!DOCTYPE svg PUBLIC "-//W3C//DTD SVG 20010904//EN"
 "http://www.w3.org/TR/2001/REC-SVG-20010904/DTD/svg10.dtd">
<svg version="1.0" xmlns="http://www.w3.org/2000/svg"
 width="300.000000pt" height="283.000000pt" viewBox="0 0 300.000000 283.000000"
 preserveAspectRatio="xMidYMid meet">
<metadata>
Created by potrace 1.10, written by Peter Selinger 2001-2011
</metadata>
<g transform="translate(0.000000,283.000000) scale(0.100000,-0.100000)"
fill="#000000" stroke="none">
<path d="M27 2822 l-27 -3 0 -1410 0 -1409 1500 0 1500 0 0 1409 0 1409 -42 6
c-46 6 -2885 5 -2931 -2z m153 -425 l0 -413 46 -95 c71 -146 148 -253 274
-380 206 -207 449 -338 737 -396 122 -24 403 -25 526 0 292 59 526 185 738
396 124 125 199 229 274 379 l45 90 0 416 0 416 80 0 80 0 0 -735 0 -735 -80
0 c-47 0 -80 -4 -80 -10 0 -6 33 -10 80 -10 l80 0 0 -650 0 -650 -554 0 -553
0 -7 48 c-9 67 -57 164 -107 212 -147 142 -373 143 -518 1 -56 -55 -99 -138
-108 -209 l-6 -52 -553 0 -554 0 0 650 0 650 86 0 c60 0 85 3 82 12 -3 7 -31
10 -86 9 l-82 -2 0 735 0 736 80 0 80 0 0 -413z m650 328 c0 -71 3 -85 16 -85
13 0 15 13 13 83 l-4 82 78 0 78 0 -1 -567 -1 -568 60 0 59 0 7 -47 c15 -104
101 -217 202 -269 53 -26 67 -29 158 -29 87 0 107 3 156 26 110 52 188 149
210 262 l12 57 53 0 54 0 0 570 0 570 86 0 86 0 -3 -85 c-3 -63 -1 -85 9 -85
9 0 12 24 12 85 l0 85 311 -2 310 -3 -1 -418 -1 -419 -39 -79 c-198 -392 -546
-658 -984 -751 -134 -28 -378 -30 -511 -4 -452 88 -817 368 -1015 777 l-40 83
0 408 0 408 315 0 315 0 0 -85z m1130 -475 l0 -560 -44 0 -44 0 -6 45 c-5 27
-12 45 -21 45 -10 0 -11 -9 -4 -37 5 -21 9 -41 9 -45 0 -5 -158 -8 -351 -8
l-351 0 7 39 c4 22 2 42 -3 45 -10 6 -22 -25 -22 -61 0 -20 -5 -23 -45 -23
l-45 0 0 560 0 560 460 0 460 0 0 -560z m-116 -607 c-30 -139 -95 -223 -211
-275 -73 -34 -199 -32 -274 3 -31 15 -75 43 -98 64 -44 40 -96 136 -107 198
l-6 37 351 0 351 0 -6 -27z m-189 -1317 c94 -46 173 -156 190 -263 l7 -43
-110 0 -110 0 -6 34 c-4 22 -20 46 -42 65 -28 25 -43 31 -82 31 -72 0 -131
-48 -132 -107 0 -22 -3 -23 -110 -23 -127 0 -123 -5 -90 103 37 119 156 221
275 236 71 9 148 -3 210 -33z m-72 -237 c51 -62 42 -69 -83 -69 -101 0 -110 2
-110 19 0 23 36 70 64 82 41 17 99 3 129 -32z"/>
<path d="M1324 2581 c-14 -15 4 -21 58 -21 48 0 59 -3 50 -12 -7 -7 -12 -29
-12 -49 0 -29 6 -43 26 -58 72 -56 166 20 124 100 -10 18 -7 19 50 19 39 0 60
4 58 10 -3 11 -344 20 -354 11z m222 -47 c37 -55 -25 -117 -80 -80 -49 31 -24
106 35 106 20 0 34 -8 45 -26z"/>
<path d="M1450 2040 c0 -5 20 -10 44 -10 25 0 48 5 51 10 4 6 -13 10 -44 10
-28 0 -51 -4 -51 -10z"/>
<path d="M1335 2014 c-37 -19 -51 -32 -43 -40 9 -9 89 36 83 46 -8 12 -4 13
-40 -6z"/>
<path d="M1620 2018 c1 -17 72 -50 83 -39 6 6 -7 18 -31 30 -48 24 -52 25 -52
9z"/>
<path d="M1194 1895 c-18 -24 -24 -39 -17 -46 6 -6 19 4 36 30 34 51 18 64
-19 16z"/>
<path d="M1757 1924 c-7 -7 44 -74 56 -74 13 0 7 21 -14 51 -20 29 -30 34 -42
23z"/>
</g>
</svg>
